<?xml version="1.0" encoding="UTF-8"?>
<svg id="Layer_2" data-name="Layer 2" xmlns="http://www.w3.org/2000/svg" viewBox="0 0 136.65 136.65">
  <defs>
    <style>
      .cls-1 {
        fill: #fff;
        stroke: #231f20;
        stroke-miterlimit: 10;
        stroke-width: 7px;
      }
    </style>
  </defs>
  <g id="Layer_1-2" data-name="Layer 1">
    <g>
      <path class="cls-1" d="M133.15,77.42v-18.68c-4.57-.63-9.14-1.26-13.72-1.89-1.36-6.08-3.77-11.76-7.05-16.84,2.74-3.7,5.47-7.39,8.21-11.09-4.4-4.4-8.81-8.81-13.21-13.21-3.68,2.79-7.36,5.58-11.04,8.36-5.06-3.21-10.71-5.58-16.74-6.9-.68-4.56-1.36-9.11-2.04-13.67h-18.68c-.63,4.56-1.26,9.12-1.89,13.68-6.11,1.35-11.82,3.77-16.93,7.05-3.62-2.68-7.24-5.36-10.87-8.04-4.4,4.4-8.81,8.81-13.21,13.21,2.72,3.59,5.45,7.19,8.17,10.78-3.28,5.13-5.68,10.87-7.01,17.01-4.55.68-9.09,1.36-13.64,2.04v18.68c4.57.63,9.14,1.26,13.72,1.89,1.36,6.08,3.77,11.76,7.05,16.84-2.74,3.7-5.47,7.39-8.21,11.09,4.4,4.4,8.81,8.81,13.21,13.21,3.68-2.79,7.36-5.58,11.04-8.36,5.14,3.26,10.88,5.65,17.03,6.97.68,4.53,1.35,9.07,2.03,13.6h18.68c.63-4.58,1.26-9.16,1.9-13.75,6.05-1.37,11.69-3.78,16.74-7.04l11.31,8.37,13.21-13.21c-2.85-3.77-5.7-7.53-8.56-11.3,3.2-5.07,5.55-10.72,6.86-16.76,4.55-.68,9.09-1.36,13.64-2.04Z"/>
      <circle class="cls-1" cx="68.32" cy="68.32" r="20.45"/>
    </g>
  </g>
</svg>