<svg xmlns="http://www.w3.org/2000/svg" viewBox="0 0 24 30" x="0px" y="0px"><title>_</title><path d="M6,19a2,2,0,0,0,2,2h8a2,2,0,0,0,2-2V8H6Zm2.43945-6.43945L9.5,11.5,12,14l2.5-2.5,1.06055,1.06055-2.5,2.5,2.5,2.5L14.5,18.62109l-2.5-2.5-2.5,2.5L8.43945,17.56055l2.5-2.5Z"/><polygon points="16 5 15 3 9 3 8 5 5 5 5 6 19 6 19 5 16 5"/><text x="0" y="39" fill="#000000" font-size="5px" font-weight="bold" font-family="'Helvetica Neue', Helvetica, Arial-Unicode, Arial, Sans-serif">Created by Sophia</text><text x="0" y="44" fill="#000000" font-size="5px" font-weight="bold" font-family="'Helvetica Neue', Helvetica, Arial-Unicode, Arial, Sans-serif">from the Noun Project</text></svg>