<?xml version="1.0" encoding="UTF-8"?>
<svg id="Layer_1" data-name="Layer 1" xmlns="http://www.w3.org/2000/svg" viewBox="0 0 132.8 136.89">
  <defs>
    <style>
      .cls-1 {
        stroke-width: 7px;
      }

      .cls-1, .cls-2, .cls-3 {
        fill: #fff;
        stroke: #231f20;
        stroke-miterlimit: 10;
      }

      .cls-2 {
        stroke-width: 4px;
      }

      .cls-3 {
        stroke-width: 5px;
      }
    </style>
  </defs>
  <rect class="cls-1" x="9.43" y="3.5" width="119.87" height="119.87" rx="14.17" ry="14.17"/>
  <circle class="cls-1" cx="69.37" cy="63.43" r="26.8"/>
  <rect class="cls-1" x="3.5" y="25.25" width="11.87" height="28.48" rx="2.83" ry="2.83"/>
  <rect class="cls-1" x="3.5" y="69.46" width="11.87" height="28.48" rx="2.83" ry="2.83"/>
  <rect class="cls-1" x="32.05" y="123.37" width="19.64" height="10.02" rx="2.9" ry="2.9"/>
  <rect class="cls-1" x="87.7" y="123.37" width="19.64" height="10.02" rx="2.9" ry="2.9"/>
  <line class="cls-2" x1="45.29" y1="63.43" x2="53.69" y2="63.43"/>
  <line class="cls-2" x1="84.95" y1="63.43" x2="93.36" y2="63.43"/>
  <line class="cls-2" x1="52.37" y1="46.44" x2="58.32" y2="52.38"/>
  <line class="cls-2" x1="80.42" y1="74.49" x2="86.36" y2="80.43"/>
  <line class="cls-2" x1="69.37" y1="39.4" x2="69.37" y2="47.8"/>
  <line class="cls-2" x1="69.37" y1="79.06" x2="69.37" y2="87.47"/>
  <line class="cls-2" x1="86.36" y1="46.44" x2="80.42" y2="52.38"/>
  <line class="cls-2" x1="58.32" y1="74.49" x2="52.37" y2="80.43"/>
  <circle class="cls-3" cx="69.32" cy="63.43" r="7.87"/>
</svg>